<mxfile host="app.diagrams.net" modified="2021-03-03T06:17:52.577Z" agent="5.0 (Macintosh; Intel Mac OS X 10_15_7) AppleWebKit/537.36 (KHTML, like Gecko) Chrome/83.0.4103.106 Safari/537.36" etag="1jugIoolmq6K5rPWz0Pd" version="14.2.9" type="github">
  <diagram name="Page-1" id="74e2e168-ea6b-b213-b513-2b3c1d86103e">
    <mxGraphModel dx="2163" dy="1128" grid="1" gridSize="10" guides="1" tooltips="1" connect="1" arrows="1" fold="1" page="1" pageScale="1" pageWidth="1100" pageHeight="850" background="#ffffff" math="0" shadow="0">
      <root>
        <mxCell id="0" />
        <mxCell id="1" parent="0" />
        <mxCell id="77e6c97f196da883-1" value="" style="swimlane;html=1;childLayout=stackLayout;startSize=0;rounded=0;shadow=0;labelBackgroundColor=none;strokeWidth=1;fontFamily=Verdana;fontSize=8;align=center;" parent="1" vertex="1">
          <mxGeometry x="210" y="80" width="730" height="720" as="geometry">
            <mxRectangle x="210" y="40" width="60" height="20" as="alternateBounds" />
          </mxGeometry>
        </mxCell>
        <mxCell id="77e6c97f196da883-2" value="用户面板" style="swimlane;html=1;startSize=20;" parent="77e6c97f196da883-1" vertex="1">
          <mxGeometry width="560" height="720" as="geometry" />
        </mxCell>
        <mxCell id="77e6c97f196da883-8" value="进入Feed页" style="rounded=1;whiteSpace=wrap;html=1;shadow=0;labelBackgroundColor=none;strokeWidth=1;fontFamily=Verdana;fontSize=8;align=center;" parent="77e6c97f196da883-2" vertex="1">
          <mxGeometry x="40" y="65" width="100" height="60" as="geometry" />
        </mxCell>
        <mxCell id="bhfd1YCjO2dvLqUsRHvz-12" value="点击AR贴纸" style="rounded=1;whiteSpace=wrap;html=1;shadow=0;labelBackgroundColor=none;strokeWidth=1;fontFamily=Verdana;fontSize=8;align=center;" vertex="1" parent="77e6c97f196da883-2">
          <mxGeometry x="40" y="330" width="100" height="60" as="geometry" />
        </mxCell>
        <mxCell id="77e6c97f196da883-3" value="Effect" style="swimlane;html=1;startSize=20;" parent="77e6c97f196da883-2" vertex="1">
          <mxGeometry x="220" width="340" height="720" as="geometry" />
        </mxCell>
        <mxCell id="bhfd1YCjO2dvLqUsRHvz-5" value="NailSlamAdapter构造" style="rounded=1;whiteSpace=wrap;html=1;shadow=0;labelBackgroundColor=none;strokeWidth=1;fontFamily=Verdana;fontSize=8;align=center;" vertex="1" parent="77e6c97f196da883-3">
          <mxGeometry x="35" y="65" width="100" height="60" as="geometry" />
        </mxCell>
        <mxCell id="bhfd1YCjO2dvLqUsRHvz-6" style="edgeStyle=orthogonalEdgeStyle;rounded=1;html=1;labelBackgroundColor=none;startArrow=none;startFill=0;startSize=5;endArrow=classicThin;endFill=1;endSize=5;jettySize=auto;orthogonalLoop=1;strokeWidth=1;fontFamily=Verdana;fontSize=8" edge="1" parent="77e6c97f196da883-3" source="bhfd1YCjO2dvLqUsRHvz-5">
          <mxGeometry relative="1" as="geometry">
            <mxPoint x="85" y="150" as="targetPoint" />
          </mxGeometry>
        </mxCell>
        <mxCell id="bhfd1YCjO2dvLqUsRHvz-10" style="edgeStyle=orthogonalEdgeStyle;rounded=0;orthogonalLoop=1;jettySize=auto;html=1;entryX=0.5;entryY=0;entryDx=0;entryDy=0;" edge="1" parent="77e6c97f196da883-3" source="bhfd1YCjO2dvLqUsRHvz-7" target="bhfd1YCjO2dvLqUsRHvz-8">
          <mxGeometry relative="1" as="geometry" />
        </mxCell>
        <mxCell id="bhfd1YCjO2dvLqUsRHvz-7" value="BachNailSlamManager单例构造" style="rounded=1;whiteSpace=wrap;html=1;shadow=0;labelBackgroundColor=none;strokeWidth=1;fontFamily=Verdana;fontSize=8;align=center;" vertex="1" parent="77e6c97f196da883-3">
          <mxGeometry x="20" y="150" width="140" height="60" as="geometry" />
        </mxCell>
        <mxCell id="bhfd1YCjO2dvLqUsRHvz-8" value="sensorAgent注册" style="rounded=1;whiteSpace=wrap;html=1;shadow=0;labelBackgroundColor=none;strokeWidth=1;fontFamily=Verdana;fontSize=8;align=center;" vertex="1" parent="77e6c97f196da883-3">
          <mxGeometry x="20" y="240" width="140" height="60" as="geometry" />
        </mxCell>
        <mxCell id="bhfd1YCjO2dvLqUsRHvz-27" style="edgeStyle=orthogonalEdgeStyle;rounded=0;orthogonalLoop=1;jettySize=auto;html=1;entryX=0.438;entryY=0.017;entryDx=0;entryDy=0;entryPerimeter=0;" edge="1" parent="77e6c97f196da883-3" source="bhfd1YCjO2dvLqUsRHvz-17" target="bhfd1YCjO2dvLqUsRHvz-26">
          <mxGeometry relative="1" as="geometry" />
        </mxCell>
        <mxCell id="bhfd1YCjO2dvLqUsRHvz-17" value="algorithmConfig.json打开bachslam 或 bachSlam AB下发" style="rhombus;whiteSpace=wrap;html=1;rounded=0;shadow=0;labelBackgroundColor=none;strokeWidth=1;fontFamily=Verdana;fontSize=8;align=center;" vertex="1" parent="77e6c97f196da883-3">
          <mxGeometry x="11" y="460" width="200" height="100" as="geometry" />
        </mxCell>
        <mxCell id="bhfd1YCjO2dvLqUsRHvz-14" value="走新AR框架（不支持ARKit+ARCore）" style="rhombus;whiteSpace=wrap;html=1;rounded=0;shadow=0;labelBackgroundColor=none;strokeWidth=1;fontFamily=Verdana;fontSize=8;align=center;" vertex="1" parent="77e6c97f196da883-3">
          <mxGeometry x="26" y="319.5" width="170" height="81" as="geometry" />
        </mxCell>
        <mxCell id="bhfd1YCjO2dvLqUsRHvz-16" style="edgeStyle=orthogonalEdgeStyle;rounded=0;orthogonalLoop=1;jettySize=auto;html=1;entryX=0.5;entryY=0;entryDx=0;entryDy=0;" edge="1" parent="77e6c97f196da883-3" source="bhfd1YCjO2dvLqUsRHvz-14" target="bhfd1YCjO2dvLqUsRHvz-17">
          <mxGeometry relative="1" as="geometry">
            <mxPoint x="110" y="470" as="targetPoint" />
          </mxGeometry>
        </mxCell>
        <mxCell id="bhfd1YCjO2dvLqUsRHvz-22" value="不走新AR" style="text;html=1;strokeColor=none;fillColor=none;align=center;verticalAlign=middle;whiteSpace=wrap;rounded=0;" vertex="1" parent="77e6c97f196da883-3">
          <mxGeometry x="60" y="410" width="40" height="20" as="geometry" />
        </mxCell>
        <mxCell id="bhfd1YCjO2dvLqUsRHvz-26" value="旧算法系统" style="rounded=1;whiteSpace=wrap;html=1;shadow=0;labelBackgroundColor=none;strokeWidth=1;fontFamily=Verdana;fontSize=8;align=center;" vertex="1" parent="77e6c97f196da883-3">
          <mxGeometry x="71" y="600" width="90" height="50" as="geometry" />
        </mxCell>
        <mxCell id="bhfd1YCjO2dvLqUsRHvz-28" value="否" style="text;html=1;strokeColor=none;fillColor=none;align=center;verticalAlign=middle;whiteSpace=wrap;rounded=0;" vertex="1" parent="77e6c97f196da883-3">
          <mxGeometry x="50" y="560" width="40" height="20" as="geometry" />
        </mxCell>
        <mxCell id="bhfd1YCjO2dvLqUsRHvz-23" value="是" style="text;html=1;strokeColor=none;fillColor=none;align=center;verticalAlign=middle;whiteSpace=wrap;rounded=0;" vertex="1" parent="77e6c97f196da883-3">
          <mxGeometry x="170" y="330" width="40" height="20" as="geometry" />
        </mxCell>
        <mxCell id="bhfd1YCjO2dvLqUsRHvz-34" value="遍历algMap下发IMU" style="text;html=1;strokeColor=none;fillColor=none;align=center;verticalAlign=middle;whiteSpace=wrap;rounded=0;" vertex="1" parent="77e6c97f196da883-3">
          <mxGeometry x="180" y="250" width="70" height="20" as="geometry" />
        </mxCell>
        <mxCell id="bhfd1YCjO2dvLqUsRHvz-40" value="algMap erase被销毁实例" style="text;html=1;strokeColor=none;fillColor=none;align=center;verticalAlign=middle;whiteSpace=wrap;rounded=0;" vertex="1" parent="77e6c97f196da883-3">
          <mxGeometry x="230" y="550" width="80" height="50" as="geometry" />
        </mxCell>
        <mxCell id="bhfd1YCjO2dvLqUsRHvz-15" style="edgeStyle=orthogonalEdgeStyle;rounded=0;orthogonalLoop=1;jettySize=auto;html=1;entryX=0;entryY=0.5;entryDx=0;entryDy=0;" edge="1" parent="77e6c97f196da883-2" source="bhfd1YCjO2dvLqUsRHvz-12" target="bhfd1YCjO2dvLqUsRHvz-14">
          <mxGeometry relative="1" as="geometry" />
        </mxCell>
        <mxCell id="77e6c97f196da883-26" style="edgeStyle=orthogonalEdgeStyle;rounded=1;html=1;labelBackgroundColor=none;startArrow=none;startFill=0;startSize=5;endArrow=classicThin;endFill=1;endSize=5;jettySize=auto;orthogonalLoop=1;strokeWidth=1;fontFamily=Verdana;fontSize=8;entryX=0;entryY=0.5;entryDx=0;entryDy=0;" parent="77e6c97f196da883-2" source="77e6c97f196da883-8" target="bhfd1YCjO2dvLqUsRHvz-5" edge="1">
          <mxGeometry relative="1" as="geometry">
            <mxPoint x="190" y="95" as="targetPoint" />
          </mxGeometry>
        </mxCell>
        <mxCell id="bhfd1YCjO2dvLqUsRHvz-37" value="取消AR贴纸" style="rounded=1;whiteSpace=wrap;html=1;shadow=0;labelBackgroundColor=none;strokeWidth=1;fontFamily=Verdana;fontSize=8;align=center;" vertex="1" parent="77e6c97f196da883-2">
          <mxGeometry x="40" y="650" width="100" height="60" as="geometry" />
        </mxCell>
        <mxCell id="bhfd1YCjO2dvLqUsRHvz-44" value="客户端" style="text;html=1;strokeColor=none;fillColor=none;align=center;verticalAlign=middle;whiteSpace=wrap;rounded=0;" vertex="1" parent="77e6c97f196da883-2">
          <mxGeometry x="91" y="-2" width="40" height="20" as="geometry" />
        </mxCell>
        <mxCell id="77e6c97f196da883-4" value="Bach" style="swimlane;html=1;startSize=20;" parent="77e6c97f196da883-1" vertex="1">
          <mxGeometry x="560" width="170" height="720" as="geometry" />
        </mxCell>
        <mxCell id="77e6c97f196da883-14" value="BachNailSlam实例构造" style="rounded=1;whiteSpace=wrap;html=1;shadow=0;labelBackgroundColor=none;strokeWidth=1;fontFamily=Verdana;fontSize=8;align=center;" parent="77e6c97f196da883-4" vertex="1">
          <mxGeometry x="40" y="330" width="100" height="60" as="geometry" />
        </mxCell>
        <mxCell id="bhfd1YCjO2dvLqUsRHvz-25" value="注册nailSlam实例进algMap" style="text;html=1;strokeColor=none;fillColor=none;align=center;verticalAlign=middle;whiteSpace=wrap;rounded=0;" vertex="1" parent="77e6c97f196da883-4">
          <mxGeometry x="20" y="150" width="100" height="20" as="geometry" />
        </mxCell>
        <mxCell id="bhfd1YCjO2dvLqUsRHvz-31" value="是" style="text;html=1;strokeColor=none;fillColor=none;align=center;verticalAlign=middle;whiteSpace=wrap;rounded=0;" vertex="1" parent="77e6c97f196da883-4">
          <mxGeometry x="30" y="480" width="40" height="20" as="geometry" />
        </mxCell>
        <mxCell id="bhfd1YCjO2dvLqUsRHvz-38" value="BachNailSlam实例析构" style="rounded=1;whiteSpace=wrap;html=1;shadow=0;labelBackgroundColor=none;strokeWidth=1;fontFamily=Verdana;fontSize=8;align=center;" vertex="1" parent="77e6c97f196da883-4">
          <mxGeometry x="30" y="635" width="100" height="60" as="geometry" />
        </mxCell>
        <mxCell id="bhfd1YCjO2dvLqUsRHvz-24" style="edgeStyle=orthogonalEdgeStyle;rounded=0;orthogonalLoop=1;jettySize=auto;html=1;entryX=1;entryY=0.5;entryDx=0;entryDy=0;" edge="1" parent="77e6c97f196da883-1" source="77e6c97f196da883-14" target="bhfd1YCjO2dvLqUsRHvz-7">
          <mxGeometry relative="1" as="geometry">
            <Array as="points">
              <mxPoint x="650" y="180" />
            </Array>
          </mxGeometry>
        </mxCell>
        <mxCell id="bhfd1YCjO2dvLqUsRHvz-29" style="edgeStyle=orthogonalEdgeStyle;rounded=0;orthogonalLoop=1;jettySize=auto;html=1;entryX=0;entryY=0.5;entryDx=0;entryDy=0;" edge="1" parent="77e6c97f196da883-1" source="bhfd1YCjO2dvLqUsRHvz-14" target="77e6c97f196da883-14">
          <mxGeometry relative="1" as="geometry" />
        </mxCell>
        <mxCell id="bhfd1YCjO2dvLqUsRHvz-30" style="edgeStyle=orthogonalEdgeStyle;rounded=0;orthogonalLoop=1;jettySize=auto;html=1;" edge="1" parent="77e6c97f196da883-1" source="bhfd1YCjO2dvLqUsRHvz-17" target="77e6c97f196da883-14">
          <mxGeometry relative="1" as="geometry" />
        </mxCell>
        <mxCell id="bhfd1YCjO2dvLqUsRHvz-35" style="edgeStyle=orthogonalEdgeStyle;rounded=0;orthogonalLoop=1;jettySize=auto;html=1;exitX=1;exitY=0.5;exitDx=0;exitDy=0;entryX=0.25;entryY=0;entryDx=0;entryDy=0;" edge="1" parent="77e6c97f196da883-1" source="bhfd1YCjO2dvLqUsRHvz-8" target="77e6c97f196da883-14">
          <mxGeometry relative="1" as="geometry" />
        </mxCell>
        <mxCell id="bhfd1YCjO2dvLqUsRHvz-39" style="edgeStyle=orthogonalEdgeStyle;rounded=0;orthogonalLoop=1;jettySize=auto;html=1;entryX=1;entryY=0.75;entryDx=0;entryDy=0;" edge="1" parent="77e6c97f196da883-1" source="bhfd1YCjO2dvLqUsRHvz-38" target="bhfd1YCjO2dvLqUsRHvz-7">
          <mxGeometry relative="1" as="geometry" />
        </mxCell>
        <mxCell id="bhfd1YCjO2dvLqUsRHvz-43" style="edgeStyle=orthogonalEdgeStyle;rounded=0;orthogonalLoop=1;jettySize=auto;html=1;entryX=0;entryY=0.75;entryDx=0;entryDy=0;" edge="1" parent="77e6c97f196da883-1" source="bhfd1YCjO2dvLqUsRHvz-37" target="bhfd1YCjO2dvLqUsRHvz-38">
          <mxGeometry relative="1" as="geometry" />
        </mxCell>
      </root>
    </mxGraphModel>
  </diagram>
</mxfile>
